<?xml version="1.0" encoding="UTF-8" standalone="no"?>
<!-- Created with Inkscape (http://www.inkscape.org/) -->

<svg
   xmlns:dc="http://purl.org/dc/elements/1.1/"
   xmlns:cc="http://creativecommons.org/ns#"
   xmlns:rdf="http://www.w3.org/1999/02/22-rdf-syntax-ns#"
   xmlns:svg="http://www.w3.org/2000/svg"
   xmlns="http://www.w3.org/2000/svg"
   xmlns:sodipodi="http://sodipodi.sourceforge.net/DTD/sodipodi-0.dtd"
   xmlns:inkscape="http://www.inkscape.org/namespaces/inkscape"
   version="1.1"
   width="2850.1775"
   height="472.73773"
   id="svg2985"
   inkscape:version="0.48.2 r9819"
   sodipodi:docname="cachetur_white_plain.svg">
  <sodipodi:namedview
     pagecolor="#ffffff"
     bordercolor="#666666"
     borderopacity="1"
     objecttolerance="10"
     gridtolerance="10"
     guidetolerance="10"
     inkscape:pageopacity="0"
     inkscape:pageshadow="2"
     inkscape:window-width="640"
     inkscape:window-height="480"
     id="namedview13"
     showgrid="false"
     inkscape:zoom="0.10244976"
     inkscape:cx="1425.0887"
     inkscape:cy="236.36887"
     inkscape:window-x="0"
     inkscape:window-y="0"
     inkscape:window-maximized="0"
     inkscape:current-layer="g3013" />
  <metadata
     id="metadata2991">
    <rdf:RDF>
      <cc:Work
         rdf:about="">
        <dc:format>image/svg+xml</dc:format>
        <dc:type
           rdf:resource="http://purl.org/dc/dcmitype/StillImage" />
        <dc:title />
      </cc:Work>
    </rdf:RDF>
  </metadata>
  <defs
     id="defs2989" />
  <g
     transform="translate(-41.829114,-2.494094)"
     id="g3013">
    <g
       transform="translate(0,0.35210182)"
       id="g2988">
      <path
         d="m 136.03689,370.10317 c -2.20557,-0.60525 -5.60474,-4.81809 -15.01015,-18.60317 -1.94771,-2.85466 -2.0351,-7.77416 -0.17139,-9.64823 1.04698,-1.05279 13.25556,-5.64487 18.36441,-6.9075 2.59587,-0.64156 5.23847,-1.79148 5.87245,-2.55537 1.86616,-2.24859 7.41038,-1.67833 10.71472,1.10209 2.42667,2.04191 3.07923,3.52925 3.61963,8.25 0.3626,3.16746 1.12301,8.12708 1.68982,11.02139 1.98378,10.12986 -1.68012,14.7665 -12.91328,16.3417 -3.6867,0.51697 -7.3781,1.10534 -8.2031,1.30749 -0.825,0.20214 -2.6084,0.0634 -3.96311,-0.3084 z M 87,396.09074 c -1.375,-0.32975 -6.042575,-1.94757 -10.37239,-3.59515 -9.80976,-3.7328 -16.151426,-9.2724 -15.155866,-13.23903 1.217749,-4.8519 9.343513,-12.81679 21.497301,-21.07171 11.480558,-7.79765 12.346233,-8.20019 18.956195,-8.81452 l 6.92626,-0.64373 3.43864,3.75348 c 3.30048,3.60267 6.01396,9.26678 8.71686,18.19557 1.91348,6.32099 2.07375,6.13441 -11.007,12.81407 -1.925,0.98299 -4.85,3.02645 -6.5,4.54102 -4.865351,4.46599 -13.631225,8.74799 -16.5,8.06 z m 27.12657,28.86575 c -1.83046,-1.5247 -3.62929,-1.92442 -7.86307,-1.74725 -4.69706,0.19655 -5.76207,-0.10672 -7.376569,-2.10055 -2.586938,-3.19473 -2.543906,-9.68145 0.07507,-11.31704 1.694359,-1.05814 1.883589,-1.98009 1.387219,-6.75847 -0.478572,-4.60699 -0.26298,-5.80425 1.28799,-7.15261 2.67204,-2.32297 7.54194,-3.00084 9.42485,-1.31189 0.85914,0.77063 4.17411,1.5871 7.36659,1.81438 3.8216,0.27206 6.77571,1.13125 8.64744,2.51508 3.47122,2.56639 3.9239,2.59972 3.9239,0.28895 0,-0.9971 1.35,-3.10629 3,-4.68709 3.45735,-3.31235 3.61353,-4.26891 1.34295,-8.22516 -2.12457,-3.70185 -1.19979,-7.56341 2.18013,-9.1034 3.84115,-1.75015 5.57836,-1.44844 8.66007,1.50403 2.50148,2.39657 3.04345,2.54122 5.19905,1.38757 4.66228,-2.49517 13.6178,2.46512 13.6178,7.54264 0,1.39027 -1.13422,4.01481 -2.52049,5.8323 -2.13021,2.79285 -2.47861,4.20174 -2.25,9.09872 0.26104,5.59186 0.15679,5.86159 -2.9857,7.72441 -2.74169,1.62524 -3.76873,1.7529 -6.5,0.80793 -1.7841,-0.61725 -3.94596,-2.04373 -4.80413,-3.16993 -1.5219,-1.99722 -1.65138,-2.00423 -5.25758,-0.28456 l -3.69725,1.7631 -3.49243,-3.38499 C 130.21227,402.81341 130,402.74407 130,404.8518 c 0,1.23427 -1.23,3.30213 -2.73334,4.59525 l -2.73333,2.35112 1.73333,3.63484 c 2.27037,4.76102 2.24874,4.89775 -1.34358,8.49007 -3.59289,3.59288 -7.298,3.94752 -10.79651,1.03341 z m 41.24281,32.89795 c -1.66166,-2.89881 -1.91921,-5.34944 -1.89611,-18.04192 l 0.0267,-14.68749 3.30584,-3.41773 c 3.13136,-3.23735 8.42487,-6.04434 16.13965,-8.55836 2.79996,-0.91243 3.8873,-0.83329 5.80374,0.4224 1.29704,0.84986 2.6006,2.30647 2.8968,3.23693 1.95192,6.13163 5.88247,13.99253 9.32959,18.65873 3.83585,5.19239 4.86903,8.7219 3.25907,11.13351 -2.56172,3.83728 -22.57648,12.2526 -33.33858,14.0174 -3.29915,0.54101 -3.76648,0.30733 -5.52673,-2.76347 z m -91.241845,1.73965 C 55.734996,453.40227 46.222981,439.41621 43.320294,429 c -3.50701,-12.5848 -0.646359,-27.52009 6.673027,-34.83948 3.616696,-3.61669 6.480398,-3.99382 9.442228,-1.24348 1.135448,1.05437 5.439451,3.5989 9.564451,5.65449 7.217722,3.59679 13.695652,7.81605 15.234687,9.92278 0.404078,0.55313 0.741578,2.82819 0.75,5.05569 0.0084,2.2275 0.431102,4.4775 0.939288,5 1.438767,1.47929 5.074959,11.68703 5.075521,14.24831 5.29e-4,2.41092 -1.857476,6.6757 -6.187155,14.20169 -1.423859,2.475 -2.904392,6.3 -3.290074,8.5 -1.005122,5.7334 -2.001749,6.5 -8.450432,6.5 -4.432607,0 -6.400901,-0.52945 -8.9443,-2.40591 z M 96,473.53117 c -9.612574,-2.75559 -10.286369,-3.23296 -9.59601,-6.7986 0.34423,-1.77791 0.797376,-4.17991 1.00699,-5.33777 0.209615,-1.15786 1.552896,-3.96142 2.985069,-6.23013 C 91.828222,452.89596 93,450.72288 93,450.3356 c 0,-0.38728 0.851993,-2.53373 1.893318,-4.76988 1.041325,-2.23614 2.15726,-5.19072 2.479855,-6.56572 0.322596,-1.375 2.149419,-3.50275 4.059607,-4.72833 3.81885,-2.45019 5.92325,-2.60848 26.46775,-1.99088 16.17528,0.48625 16.00787,0.3132 15.98048,16.51873 -0.0323,19.10238 -1.7421,21.32105 -17.8865,23.20968 -5.22198,0.61089 -10.87646,1.53373 -12.56551,2.05075 -4.1614,1.27383 -11.9669,1.03701 -17.429,-0.52878 z"
         id="path3085"
         style="fill:#4dc8c8" />
      <path
         d="m 338,267.6391 c -10.23061,-1.37102 -11.38404,-1.97515 -10.49748,-5.49819 0.36552,-1.4525 1.05544,-7.81363 1.53315,-14.13585 0.47771,-6.32221 1.40624,-15.54721 2.06339,-20.5 1.59766,-12.04117 2.19698,-12.54878 14.78487,-12.52239 5.28884,0.0111 13.44107,-0.31798 18.11607,-0.73126 4.675,-0.41327 11.57878,-0.74872 15.34173,-0.74543 6.27373,0.005 7.04467,0.24192 9.28629,2.84796 3.28844,3.82304 2.69774,5.26618 -6.75576,16.50507 C 377.54252,238.00646 374,242.76552 374,243.4347 c 0,0.66917 -1.17461,2.30761 -2.61025,3.64099 -1.43564,1.33337 -5.02605,5.57431 -7.9787,9.42431 -8.65879,11.29033 -8.64162,11.27464 -12.91105,11.79277 -2.2,0.26698 -7.825,-0.0272 -12.5,-0.65367 z m -50.53472,13.40938 c -2.85257,-1.15627 -3.86332,-2.75195 -5.73154,-9.04848 -0.89753,-3.025 -2.51232,-8.425 -3.58841,-12 -1.07608,-3.575 -2.50598,-9.30453 -3.17754,-12.73228 -1.07498,-5.48683 -1.0195,-6.53986 0.46386,-8.80375 0.92669,-1.4143 2.44616,-2.8229 3.37662,-3.13022 0.93045,-0.30733 6.19173,-2.70324 11.69173,-5.32425 21.96003,-10.46502 23.55781,-11.03853 26.41514,-9.48156 1.42167,0.77467 3.6719,2.26846 5.00051,3.31953 l 2.41566,1.91104 -1.66566,5.93635 c -0.91611,3.26499 -1.67996,7.25683 -1.69745,8.87074 -0.0175,1.61392 -0.6925,3.80791 -1.5,4.87553 -1.0453,1.382 -1.4682,4.60641 -1.4682,11.19424 0,11.65572 -1.23728,13.36418 -11.45659,15.81941 -5.41947,1.30205 -7.90032,2.54126 -11.22766,5.60829 -4.54913,4.19324 -4.71502,4.25633 -7.85047,2.98541 z m 126.98587,3.07255 c -0.20667,-0.20844 -6.13022,-0.49987 -13.16346,-0.64763 -17.0482,-0.35817 -40.60363,-1.56969 -41.53769,-2.1364 -3.24797,-1.97059 2.46844,-12.94185 13.11132,-25.16399 2.55128,-2.92985 5.31368,-6.5738 6.13868,-8.09768 1.29114,-2.3849 11.42231,-14.06939 20.17308,-23.26605 4.55865,-4.79094 7.47162,-3.95157 15.41126,4.44072 7.51527,7.94372 17.40398,19.64243 17.43577,20.62715 0.0111,0.34257 0.4422,3.54375 0.95809,7.11374 1.2866,8.90322 -0.41893,20.19101 -3.62678,24.00332 -2.04827,2.43423 -3.22944,2.87688 -8.45275,3.16771 -3.33947,0.18595 -6.24086,0.16754 -6.44752,-0.0409 z M 334.5,307.28693 c -1.1,-0.26458 -2.4275,-0.88738 -2.95,-1.38399 C 331.0275,305.40632 329.82731,305 328.88291,305 c -3.81915,0 -10.81731,-3.89045 -11.4366,-6.35789 -0.7118,-2.83604 0.86803,-6.41169 3.89499,-8.81557 1.94967,-1.54835 1.98715,-1.81001 0.50124,-3.5 -3.34667,-3.8063 -3.27611,-6.28399 0.28354,-9.95662 3.72848,-3.84682 6.2054,-3.87693 12.51836,-0.1522 1.96408,1.15884 4.29519,1.76982 5.52522,1.44817 3.84803,-1.00629 7.83826,0.44875 9.37379,3.41814 1.92142,3.71561 1.88284,4.00871 -1.10782,8.41569 -2.08888,3.07814 -2.44475,4.48685 -1.91923,7.59737 0.89104,5.27403 -0.0313,7.44485 -3.95429,9.30641 -3.41888,1.62237 -4.49829,1.74065 -8.06211,0.88343 z m -66.87256,26.12768 c -3.4925,-1.8592 -5.16152,-2.28053 -5.94205,-1.5 -1.82392,1.82392 -4.32458,1.22486 -7.57963,-1.81582 -3.96543,-3.70427 -4.20442,-8.15675 -0.60576,-11.28574 2.90572,-2.52649 3.09248,-3.97918 0.93492,-7.27204 -1.42625,-2.17672 -1.41731,-2.67439 0.10075,-5.61 l 1.66584,-3.22138 -4.2863,0.57492 c -5.99557,0.80417 -8.91535,-1.03385 -14.3178,-9.01317 -2.52154,-3.72426 -5.97637,-8.75683 -7.6774,-11.18349 -6.24774,-8.91292 -5.84487,-11.77391 2.46764,-17.52383 2.81179,-1.94497 6.23735,-4.31551 7.61235,-5.26786 1.375,-0.95235 4.82124,-3.81274 7.65831,-6.35642 5.08983,-4.56348 10.86334,-7.95432 13.49282,-7.92447 2.92054,0.0332 4.03558,2.05644 6.92558,12.56677 3.97594,14.45962 4.61981,16.94465 6.04437,23.32829 1.20013,5.37798 1.18991,5.42447 -1.70686,7.76548 -1.60282,1.29532 -3.58922,2.93968 -4.41422,3.65413 -0.825,0.71446 -3.6367,2.61999 -6.24821,4.23452 -5.70977,3.52997 -6.26135,5.55473 -1.29358,4.74857 2.77084,-0.44965 4.07805,-0.0396 6.57672,2.06287 3.37366,2.83874 4.50633,3.17534 5.46507,1.62406 0.33992,-0.55 2.60064,-1 5.02383,-1 3.33243,0 4.658,0.47124 5.44099,1.93426 1.5295,2.8579 1.25707,7.6367 -0.51942,9.11105 -2.99194,2.48309 -3.6425,4.83521 -1.9899,7.19461 2.5939,3.70332 1.95134,7.34798 -1.79989,10.20919 -4.15931,3.17246 -5.0089,3.1698 -11.02817,-0.0345 z m -61.95228,-2.40677 c -5.58943,-3.83877 -10.18722,-6.22599 -12.79415,-6.64286 -8.64382,-1.3822 -10.24323,-7.51204 -3.77186,-14.45584 C 200.91814,297.23805 216.3561,282 217.38443,282 c 2.0646,0 5.16156,2.7332 8.13003,7.17508 1.58966,2.37871 3.96784,5.44992 5.28483,6.82492 C 234.99389,300.37935 241,309.29794 241,311.14723 241,314.29616 218.89914,337 215.83384,337 c -0.7886,0 -5.36001,-2.69647 -10.15868,-5.99216 z m 177.47433,4.96652 c -1.84278,-1.13696 -6.34278,-3.1817 -10,-4.54386 -3.65722,-1.36216 -8.44949,-3.34362 -10.64949,-4.40324 -2.2,-1.05963 -6.09001,-2.86639 -8.64447,-4.01504 -6.8587,-3.08412 -7.80502,-6.12135 -4.25561,-13.65851 3.54712,-7.53228 8.23191,-14.48899 11.40008,-16.92861 2.30421,-1.77434 4.65365,-1.94862 30,-2.22547 30.34292,-0.33142 31.38821,-0.14871 31.22878,5.45865 -0.0508,1.78854 -2.18651,6.15032 -5.40642,11.04188 -5.43203,8.25213 -15.0601,23.39851 -17.89864,28.15725 -1.35256,2.26753 -2.34607,2.68102 -7,2.91337 -4.07784,0.2036 -6.25514,-0.24218 -8.77423,-1.79642 z m -75.00537,3.49345 c -2.8807,-2.42394 -3.19443,-2.48095 -5.46515,-0.99312 -4.14718,2.71734 -10.97893,-1.01093 -12.22182,-6.66978 -0.53219,-2.42306 -0.12767,-3.53937 2.14043,-5.90676 2.58425,-2.69738 2.70572,-3.17047 1.59953,-6.2296 -1.66604,-4.60735 -1.50176,-6.65659 0.84177,-10.50051 1.92874,-3.16356 2.24443,-3.29721 6.24626,-2.64445 2.31818,0.37813 5.14386,1.54001 6.27931,2.58196 2.38568,2.18922 5.58372,2.43145 8.50871,0.64445 1.80588,-1.10328 2.39116,-0.86668 4.98644,2.01578 3.84751,4.27326 4.19813,11.23425 0.6904,13.70682 -1.84014,1.2971 -2.25,2.53055 -2.25,6.77128 0,5.04372 -0.11329,5.2482 -4.14987,7.49039 l -4.14988,2.30511 -3.05613,-2.57157 z m -66.21027,26.36583 c -1.39673,-1.92408 -1.91981,-2.03418 -4.83539,-1.01781 -2.57749,0.89852 -3.98419,0.84093 -6.64825,-0.27219 -4.40793,-1.84175 -5.15587,-4.95521 -2.82161,-11.74555 1.0017,-2.91395 1.67967,-7.00293 1.50658,-9.08663 -0.66107,-7.9584 4.90162,-10.98236 12.23891,-6.65325 2.53339,1.49474 4.40433,1.88638 6.83403,1.43057 6.49268,-1.21803 11.96587,6.80524 8.63342,12.65592 -0.73785,1.29542 -1.36291,4.26342 -1.38903,6.59558 -0.0674,6.0227 -3.01759,9.68827 -8.05248,10.00527 -3.01982,0.19013 -4.2535,-0.24138 -5.46618,-1.91191 z m 98.77717,12.80293 c -0.74855,-0.62511 -3.7285,-4.17407 -6.62211,-7.88657 -2.89361,-3.7125 -5.5658,-6.75 -5.93819,-6.75 -1.02826,0 -9.01083,-10.50186 -10.03987,-13.20844 -1.17829,-3.09914 0.93381,-8.22286 4.05777,-9.8437 1.28226,-0.66529 5.59509,-4.3484 9.58407,-8.18469 5.43351,-5.22553 7.69097,-6.79448 9,-6.25507 0.96102,0.39601 3.77231,1.46288 6.24731,2.37082 2.475,0.90795 5.175,2.08723 6,2.62064 3.31384,2.14255 10.72933,5.22708 14.07555,5.85484 5.56407,1.04382 15.13458,5.03162 16.22523,6.76065 0.74911,1.1876 -0.0138,3.04464 -3.14504,7.65562 -2.27374,3.34822 -4.98068,6.35638 -6.01543,6.6848 -1.03475,0.32842 -4.53533,3.17279 -7.77906,6.32083 -11.04957,10.72359 -22.19475,16.74596 -25.65023,13.86027 z m -51.37173,27.42869 c -3.40448,-2.0759 -3.87159,-3.05797 -4.89104,-10.28304 -0.36612,-2.59478 -1.32464,-5.26467 -2.13005,-5.9331 -2.34123,-1.94305 -5.30621,-8.48247 -5.93892,-13.0986 -0.70744,-5.16136 -0.0793,-5.82137 11.08011,-11.64305 4.37767,-2.28375 8.87767,-4.98596 10,-6.00491 C 300.28194,356.54001 303.4793,355 305.9771,355 c 2.93743,0 10.46048,7.32489 18.88682,18.38934 8.45786,11.10585 8.92185,13.43434 3.38608,16.9929 -10.13915,6.51776 -31.61758,17.61952 -34.07763,17.61402 -0.9198,-0.002 -3.09469,-0.87101 -4.83308,-1.931 z m -56.97913,20.36166 c -1.50384,-2.29515 -2.02192,-5.96506 -2.73575,-19.37912 -1.06932,-20.09417 -0.35577,-23.89051 5.16784,-27.49462 3.22632,-2.10515 5.35187,-2.50983 16.37002,-3.11666 6.96425,-0.38355 13.824,-0.4058 15.2439,-0.0494 3.10573,0.77949 4.7725,4.36332 6.56363,14.11291 0.7073,3.85 1.83283,8.35 2.50118,10 1.72896,4.26842 2.67325,9.96057 1.96052,11.81792 -1.57712,4.10991 -9.11238,8.54414 -18.98187,11.17016 -5.4385,1.44705 -10.44769,3.09535 -11.13155,3.6629 -0.68385,0.56754 -3.91173,1.27386 -7.17306,1.56959 -5.66626,0.5138 -6.01212,0.4119 -7.78486,-2.29365 z"
         id="path3016"
         style="fill:#f0983f" />
      <path
         d="m 246.80926,195.48072 c -0.8641,-1.89649 -0.86332,-4.0635 0.003,-8.76587 0.82653,-4.48574 0.86578,-8.75657 0.13923,-15.15066 -0.59541,-5.24003 -0.64343,-9.27237 -0.11669,-9.79911 0.49228,-0.49228 3.99331,-1.73479 7.78007,-2.76113 3.78675,-1.02634 8.91001,-2.62046 11.38501,-3.54248 2.475,-0.92203 6.75,-1.74055 9.5,-1.81894 l 5,-0.14253 3.67111,7.5 c 6.48207,13.24271 8.97414,19.12021 9.5118,22.43343 0.46273,2.85145 0.18495,3.3688 -2.32876,4.33722 -2.40721,0.92738 -16.85175,4.95734 -32.85415,9.16615 -6.936,1.82425 -10.39226,1.39377 -11.69074,-1.45608 z m 57.92815,-13.21838 C 302.0297,179.27035 291,156.75816 291,154.22357 c 0,-5.44379 2.55935,-7.83375 14.57753,-13.61276 7.02547,-3.37824 12.16453,-5.29491 12.97733,-4.84005 C 321.18169,137.24081 347,163.2507 347,164.42697 c 0,2.34365 -3.76734,5.17229 -10.58311,7.94615 -3.80429,1.54825 -10.96689,4.56012 -15.91689,6.69303 -11.89967,5.12746 -13.68685,5.48985 -15.76259,3.19619 z m 46.53827,-31.1328 C 342.5124,143.53702 330,130.54648 330,129.04084 c 0,-2.81304 2.5367,-5.38825 7.44659,-7.55964 3.08307,-1.36348 7.27453,-4.44337 10.08099,-7.40752 6.16232,-6.50858 8.93452,-6.67073 18.35576,-1.07368 3.71398,2.20644 8.03709,4 9.64139,4 1.59962,0 4.72345,0.65918 6.94184,1.46484 2.21839,0.80567 5.8954,1.9344 8.17113,2.50831 3.88881,0.98069 4.17665,1.30321 4.78524,5.36154 0.88246,5.8847 0.20003,7.15109 -6.2983,11.6878 -3.09355,2.15972 -7.42464,5.26335 -9.62464,6.89695 C 369.40784,152.41335 362.05785,157 360.14119,157 c -1.14941,0 -5.13889,-2.64171 -8.86551,-5.87046 z m -105.2388,-5.59028 c -1.7792,-1.89387 -3.27616,-2.44139 -6.49819,-2.37672 -5.78681,0.11616 -8.04349,-0.78027 -9.38693,-3.72881 -1.64831,-3.61765 -1.53798,-4.00047 2.41362,-8.37442 3.05753,-3.38432 3.40574,-4.24475 2.4446,-6.04065 -3.51809,-6.57362 5.9439,-11.98918 12.26289,-7.01866 1.39842,1.1 3.95456,2 5.68031,2 6.5322,0 10.59006,8.38842 6.04682,12.5 -1.5106,1.36708 -2,3.07997 -2,7 0,3.75802 -0.50458,5.64666 -1.82874,6.84501 -2.62721,2.3776 -6.46153,2.03937 -9.13438,-0.80575 z m 40.66588,-6.65981 c -2.3344,-2.98281 -2.60027,-3.06838 -6.02351,-1.93861 -2.60543,0.85987 -4.1334,0.88648 -5.60736,0.0976 -4.58882,-2.45586 -5.60692,-9.80266 -1.71207,-12.35466 2.09571,-1.37316 2.30536,-2.11293 1.87327,-6.60985 -0.57035,-5.93564 0.54016,-7.75319 5.28045,-8.64248 4.34937,-0.81594 6.77961,0.038 7.9954,2.8094 0.83092,1.89409 1.76666,2.25912 5.79116,2.25912 3.51057,0 5.45826,0.58413 7.25,2.17433 3.27986,2.91094 3.08701,5.8565 -0.60416,9.22786 -2.69156,2.45837 -3.02464,3.35776 -2.80621,7.5775 0.20528,3.96555 -0.14803,5.10861 -2.05672,6.65418 -3.4127,2.76343 -6.56581,2.34177 -9.38025,-1.25442 z M 195,117.01432 c -13.3881,-7.92397 -19,-12.54997 -19,-15.66206 0,-2.649045 3.77413,-7.948333 7.76552,-10.903652 2.05397,-1.5208 6.31857,-5.575419 9.4769,-9.010265 C 198.65696,75.549759 204.87287,72 209.7697,72 c 1.389,0 24.00469,20.845469 25.48448,23.489707 1.11823,1.998166 -1.30117,6.829233 -8.75418,17.480393 -6.44225,9.20668 -8.76081,11.19913 -13.53435,11.63069 -4.10475,0.3711 -5.55668,-0.24202 -17.96565,-7.58647 z m 189.5,-8.8072 c -11,-4.76338 -20.28662,-9.065363 -20.63693,-9.559968 -0.60454,-0.853554 7.4154,-20.224786 9.09847,-21.976294 1.1877,-1.235994 6.35494,-2.209103 30.03846,-5.656929 11.825,-1.721472 23.05226,-3.542356 24.94947,-4.046409 4.12136,-1.094966 7.05053,0.894133 7.05053,4.787774 0,2.366278 -10.13506,21.592108 -11.98526,22.735596 -0.50286,0.310787 -3.25525,4.489976 -6.11642,9.28709 -6.01421,10.08359 -8.61773,13.24842 -10.82263,13.15592 C 405.20906,116.89755 395.5,112.97049 384.5,108.20712 z M 305,105.32989 c -0.825,-0.28172 -2.92495,-2.13554 -4.66655,-4.11959 -2.91807,-3.324294 -3.37298,-3.51332 -5.79706,-2.408836 -3.80895,1.735476 -5.32615,1.499686 -8.08184,-1.256009 -3.38901,-3.389001 -3.16149,-7.082656 0.65592,-10.648645 2.71154,-2.532959 3.02624,-3.354557 2.45376,-6.406112 -0.55777,-2.97318 -0.25113,-3.876368 2.03556,-5.9956 3.57092,-3.309413 6.38237,-3.147497 9.63096,0.554662 2.6015,2.964729 2.75929,3.006748 5.65934,1.507077 3.44202,-1.77994 5.51422,-1.275867 9.35991,2.276847 3.63417,3.357308 3.5298,6.474864 -0.30826,9.207804 -2.9404,2.093747 -3.03261,2.383039 -2.39253,7.506075 0.60481,4.840757 0.43127,5.562867 -1.89628,7.890417 -2.53816,2.53815 -3.75068,2.88296 -6.65293,1.89191 z m 39.07258,-8.964749 c -1.13992,-1.449172 -2.07258,-3.249172 -2.07258,-4 0,-1.659514 -0.83211,-1.688014 -6.63353,-0.227202 -3.8435,0.967806 -4.76021,0.896896 -6.13139,-0.474284 -1.3978,-1.397805 -1.46078,-2.446864 -0.47355,-7.887939 0.62627,-3.451644 1.40143,-7.93609 1.72257,-9.965435 C 331.1345,69.700413 335.78173,65 339.19471,65 c 1.12269,0 3.53444,1.311032 5.35944,2.913405 2.84945,2.501846 3.89543,2.83598 7.40446,2.365321 7.31227,-0.980781 10.16636,4.187672 6.04513,10.947104 -1.09795,1.800794 -1.99795,4.707375 -2,6.45907 -0.006,4.865415 -1.6128,8.061575 -4.91112,9.767204 -4.01062,2.073974 -4.60618,1.98176 -7.02004,-1.086963 z m -104.3504,-8.369034 c -1.40114,-1.102141 -3.53676,-4.047353 -4.74581,-6.544915 -1.20905,-2.497562 -4.62334,-6.927683 -7.58732,-9.844714 C 223.06358,67.349515 222,65.661333 222,63.052602 c 0,-4.255944 2.57254,-6.560133 18.23655,-16.334248 15.84048,-9.88423 17.97965,-10.737662 20.71335,-8.263694 1.12756,1.020424 2.0501,2.225701 2.0501,2.678394 0,0.452693 1.53991,4.112184 3.42201,8.132202 4.54325,9.703972 7.81664,22.420297 6.43562,25.00076 -0.56484,1.055416 -3.35138,3.001167 -6.19231,4.323891 -2.84092,1.322725 -8.31532,4.411989 -12.16532,6.865032 -7.77706,4.955183 -11.00355,5.510006 -14.77782,2.541168 z M 286.31537,66.9837 c -2.74534,-1.09441 -3.57955,-2.673622 -7.3375,-13.890354 -1.67088,-4.987261 -3.92445,-11.135815 -5.00792,-13.663452 C 269.27481,28.476589 271.98095,25.75941 296,17.309953 c 11.99833,-4.220791 21.65824,-6.655078 23.54145,-5.932422 1.94489,0.746325 1.84103,3.463625 -0.55132,14.424989 -1.10542,5.064885 -2.30327,14.004158 -2.66187,19.865051 -0.77932,12.737089 -1.18504,13.314169 -11.51796,16.382824 -4.02066,1.194052 -8.4353,2.739181 -9.8103,3.433619 -4.01175,2.026118 -6.35083,2.430037 -8.68463,1.499686 z M 367.2,64.8 C 366.54,64.14 366,63.008391 366,62.285314 366,61.230575 380.03167,33.14166 387.37317,19.5 c 0.88798,-1.65 1.61728,-3.359116 1.62067,-3.798037 0.003,-0.43892 1.55321,-3.216459 3.44404,-6.1723082 2.23835,-3.4991036 4.24462,-5.4972225 5.75,-5.7266506 2.62119,-0.3994817 10.79914,1.044914 12.31212,2.1745747 0.55,0.4106554 2.125,1.0265518 3.5,1.3686588 1.375,0.3421069 4.89573,2.7666563 7.82385,5.3878873 5.94194,5.319184 9.18641,11.846323 13.71776,27.597015 2.92742,10.175532 2.6833,12.94382 -1.27889,14.502511 -6.20522,2.441079 -24.87834,6.266971 -44.26667,9.069696 C 373.35953,66.308278 368.8843,66.484305 367.2,64.8 z m -37.92008,-7.78223 c -3.39364,-1.423421 -3.70177,-4.940938 -1.9181,-21.896572 0.90382,-8.591659 1.64215,-17.241181 1.64074,-19.22116 -0.002,-2.398892 0.97748,-4.952867 2.93491,-7.6550217 l 2.93747,-4.0550608 8.31253,-0.5733811 c 4.57189,-0.3153597 15.10346,-0.8475277 23.40348,-1.1825956 13.35833,-0.5392692 15.28533,-0.4148385 16.78395,1.0837757 2.21901,2.2190116 1.65176,3.9270103 -5.11575,15.4036195 -3.05557,5.181756 -6.05138,10.372709 -6.65736,11.535451 -0.60599,1.162743 -4.2397,7.383865 -8.07493,13.824716 -5.72363,9.61223 -7.51551,11.866703 -10,12.581595 -4.13887,1.190931 -21.51211,1.301728 -24.24694,0.154634 z"
         id="path3015"
         style="fill:#65fe5d" />
      <path
         d="m 136,171.29025 c -2.7164,-0.99938 -22.69996,-13.22282 -23.73864,-14.52033 -3.0442,-3.80281 -2.45623,-5.38403 4.42246,-11.89341 3.70606,-3.50708 7.88082,-7.5309 9.27724,-8.94183 1.39642,-1.41092 3.88894,-3.24064 5.53894,-4.06603 1.65,-0.8254 3.98473,-2.12441 5.18829,-2.88669 3.18375,-2.01646 6.80546,0.24058 9.5434,5.94742 1.20605,2.51384 4.509,7.72062 7.33989,11.57062 7.13049,9.69744 7.39191,10.90743 3.27758,15.17002 -6.93064,7.18036 -16.04715,11.38691 -20.84916,9.62023 z m 27.92019,36.29905 c -2.48878,-4.21817 -3.79072,-4.74874 -8.27526,-3.3724 -2.91361,0.89421 -3.99232,0.7855 -6.13472,-0.61825 -3.30856,-2.16785 -4.86933,-6.0591 -3.47517,-8.66412 0.56943,-1.06399 1.63939,-1.93453 2.3777,-1.93453 2.86133,0 3.67563,-2.54426 2.05539,-6.42204 -1.54534,-3.69852 -1.54454,-3.70155 1.89294,-7.13903 1.89141,-1.89141 3.91827,-3.43893 4.50413,-3.43893 0.58587,0 2.54337,1.27408 4.35,2.83129 4.39888,3.79154 5.95477,4.23625 10.2303,2.92405 4.75636,-1.45976 6.39921,0.13787 7.21372,7.01516 0.57935,4.89165 0.47336,5.21197 -2.11469,6.39117 -2.59801,1.18373 -2.69454,1.48215 -2.07731,6.42225 0.59986,4.80109 0.44997,5.33605 -2.04482,7.29846 -3.83751,3.01859 -6.16733,2.66426 -8.50221,-1.29308 z m -73.144244,5.85331 c -0.306563,-0.30656 -5.133265,-0.91183 -10.726004,-1.34505 -12.722015,-0.98545 -13.558047,-1.62677 -11.944353,-9.16242 1.276948,-5.96312 5.690983,-14.59893 10.079474,-19.71994 1.548215,-1.80663 2.821999,-3.60663 2.830631,-4 0.0086,-0.39336 2.888409,-3.85497 6.399506,-7.69247 8.583894,-9.38188 10.178129,-9.41084 25.16866,-0.45723 7.65396,4.57159 11.0074,7.14734 11.22152,8.61917 0.16797,1.15452 -1.46177,4.98633 -3.62164,8.51513 -2.15986,3.5288 -4.26009,7.51495 -4.66717,8.8581 -1.31378,4.33479 -6.55971,12.83087 -9.20937,14.9151 -1.95886,1.54083 -4.06359,2.027 -8.775392,2.027 -3.409161,0 -6.449299,-0.25082 -6.755862,-0.55739 z m 40.207894,15.37855 c -2.60282,-2.84972 -3.16519,-3.05956 -5.43178,-2.02683 -2.73005,1.24389 -5.04166,0.76945 -7.80206,-1.60132 -2.43537,-2.09161 -2.18318,-5.8895 0.61164,-9.21094 1.98038,-2.35355 2.2852,-3.60207 1.88819,-7.73383 -0.42828,-4.45717 -0.21143,-5.13329 2.27322,-7.08771 4.11503,-3.23688 8.06363,-2.86048 10.03765,0.95684 1.5403,2.97862 1.81964,3.09055 6.27568,2.51473 5.70139,-0.73674 7.07703,0.0501 8.11225,4.64012 0.64985,2.88136 0.34841,4.36686 -1.57232,7.74836 -1.30697,2.30096 -2.37631,5.61251 -2.37631,7.35899 0,7.74106 -6.73034,10.22883 -12.01616,4.44159 z m 57.44428,9.50678 c -1.36201,-1.46964 -2.7553,-3.83214 -3.09619,-5.25 -0.34089,-1.41787 -1.90503,-5.15261 -3.47587,-8.29942 -4.24394,-8.50179 -3.91945,-10.25279 3.54449,-19.12652 4.24198,-5.0432 8.13631,-7.652 11.42264,-7.652 1.05737,0 4.95636,2.48681 8.66441,5.52623 3.70806,3.03943 7.70278,6.03794 8.87716,6.66335 3.05924,1.62918 4.56692,3.91475 4.60344,6.97863 0.0505,4.23984 -0.83313,5.53662 -6.05707,8.88882 -2.70112,1.7333 -4.91113,3.5156 -4.91113,3.96067 0,0.44506 -2.73935,3.09815 -6.08745,5.89575 -6.97135,5.82513 -9.84645,6.33994 -13.48443,2.41449 z m -55.56734,35.74971 c -2.27503,-1.85253 -2.35419,-2.38179 -2.17948,-14.57068 0.14183,-9.89514 0.54402,-13.20191 1.84769,-15.19156 0.96823,-1.4777 5.5009,-4.4202 10.8187,-7.02324 11.66599,-5.71044 17.76195,-9.00181 19.04076,-10.28062 2.13623,-2.13623 4.6415,-0.77694 10.77204,5.84462 4.63129,5.00221 6.68634,8.12206 7.59986,11.53762 1.50016,5.60891 0.49981,8.13569 -5.42793,13.71038 -4.84727,4.55858 -23.84324,14.17966 -32.16319,16.29003 -7.84333,1.98946 -7.46212,2.00117 -10.30845,-0.31655 z M 102.5,278.06971 c -9.750604,-1.30498 -19.726222,-8.80053 -28.324584,-21.28272 -4.230346,-6.14117 -5.663111,-9.70148 -7.523188,-18.69453 -1.455775,-7.03834 -1.435287,-7.59738 0.411084,-11.21656 2.584645,-5.06633 5.040864,-6.32665 9.476747,-4.86268 1.893166,0.6248 8.05863,1.32488 13.701031,1.55573 l 10.25891,0.41973 3.5,3.82761 c 1.925,2.10519 5.07724,5.59524 7.00498,7.75566 1.92773,2.16043 4.40273,4.42602 5.5,5.03465 1.82787,1.01389 2.04294,2.48012 2.56692,17.5 0.4908,14.06884 0.34901,16.62604 -1,18.03406 -1.90284,1.98608 -8.78007,2.83803 -15.5719,1.92905 z"
         id="path3126"
         style="fill:#f0fe31" />
    </g>
    <g
       style="font-size:450px;font-style:normal;font-variant:normal;font-weight:bold;font-stretch:normal;line-height:125%;letter-spacing:0px;word-spacing:0px;fill:#f9f9f9;fill-opacity:1;stroke:none;font-family:Exo;-inkscape-font-specification:Exo Bold"
       id="text2987">
      <path
         d="m 519.37041,282.08701 c -6.88354,46.08465 -4.31014,79.66074 7.7202,100.72839 12.03027,21.0677 29.59409,31.5535 52.69152,31.45742 26.32688,0.53669 48.34377,-0.31174 66.05071,-2.5453 17.70662,-2.23356 34.8017,-6.71006 51.28528,-13.42951 l 7.0874,-44.77443 c -0.74552,0.16412 -8.90166,0.82036 -24.46843,1.96873 -15.56717,1.14847 -34.07316,1.80471 -55.51803,1.96873 -15.73351,0.94926 -26.11618,-2.49601 -31.14804,-10.33581 -5.03207,-7.83968 -5.14925,-25.76911 -0.35155,-53.78836 5.20763,-31.5604 11.63879,-51.04138 19.29349,-58.44302 7.65445,-7.40128 18.69805,-10.45748 33.13083,-9.16862 20.66672,0.12206 38.25397,0.60955 52.7618,1.46247 14.50741,0.8533 22.08231,1.3408 22.72472,1.46249 l 6.97491,-44.54942 c -18.00468,-5.85439 -37.73879,-9.89496 -59.20237,-12.12173 -21.46395,-2.22629 -38.55433,-3.28565 -51.2712,-3.17808 -22.75529,-1.44583 -42.66283,5.10251 -59.72267,19.64505 -17.05999,14.54299 -29.7395,45.75662 -38.03857,93.641 z"
         style=""
         id="path2991" />
      <path
         d="m 739.52589,275.3371 c -8.60617,47.33385 -6.52495,82.37711 6.24366,105.12988 12.76854,22.75284 30.82454,34.05894 54.16805,33.91833 13.74581,-0.0539 27.00657,-2.39294 39.7823,-7.0171 12.77547,-4.62416 22.2394,-11.21 28.39182,-19.75756 l 11.36236,23.6247 57.59926,0 31.4996,-214.87224 c -12.42666,-10.87228 -29.28268,-18.40499 -50.56811,-22.59814 -21.28586,-4.19268 -41.29183,-5.95984 -60.01798,-5.3015 -15.04786,-0.16573 -30.37682,1.87869 -45.98691,6.13325 -15.61031,4.25504 -29.86428,13.96601 -42.76195,29.13295 -12.8978,15.16736 -22.80183,39.03648 -29.7121,71.60743 z m 72.11156,11.13735 c 3.93031,-24.55032 9.54117,-40.58603 16.83261,-48.10719 7.29118,-7.52081 15.29263,-11.77232 24.00437,-12.75452 5.9318,-1.26074 12.37701,-1.57949 19.33568,-0.95625 6.95833,0.62361 12.92544,1.99235 17.90134,4.10621 l -14.96231,102.03618 c -4.172,7.25622 -9.63755,12.88114 -16.39667,16.87477 -6.75943,3.99376 -15.76868,6.01873 -27.02777,6.07493 -12.40777,-0.35619 -19.62642,-6.67485 -21.65598,-18.95601 -2.02976,-12.281 -1.37352,-28.38702 1.96873,-48.31812 z"
         style=""
         id="path2993" />
      <path
         d="m 985.19072,282.08701 c -6.88354,46.08465 -4.31014,79.66074 7.72021,100.72839 12.03027,21.0677 29.59407,31.5535 52.69147,31.45742 26.3269,0.53669 48.3438,-0.31174 66.0508,-2.5453 17.7066,-2.23356 34.8016,-6.71006 51.2852,-13.42951 l 7.0874,-44.77443 c -0.7455,0.16412 -8.9016,0.82036 -24.4684,1.96873 -15.5672,1.14847 -34.0732,1.80471 -55.518,1.96873 -15.7335,0.94926 -26.1162,-2.49601 -31.1481,-10.33581 -5.032,-7.83968 -5.1492,-25.76911 -0.3515,-53.78836 5.2076,-31.5604 11.6388,-51.04138 19.2935,-58.44302 7.6544,-7.40128 18.698,-10.45748 33.1308,-9.16862 20.6667,0.12206 38.254,0.60955 52.7618,1.46247 14.5074,0.8533 22.0823,1.3408 22.7247,1.46249 l 6.9749,-44.54942 c -18.0047,-5.85439 -37.7388,-9.89496 -59.2023,-12.12173 -21.464,-2.22629 -38.5544,-3.28565 -51.2712,-3.17808 -22.7553,-1.44583 -42.6629,5.10251 -59.7227,19.64505 -17.06,14.54299 -29.73951,45.75662 -38.03858,93.641 z"
         style=""
         id="path2995" />
      <path
         d="m 1190.3839,411.91034 73.799,0 26.5497,-167.17285 c 7.1763,-6.59506 14.62,-11.40438 22.331,-14.42795 7.7106,-3.02321 16.8418,-4.51381 27.3934,-4.47181 6.7145,-0.16856 11.566,1.85641 14.5545,6.07492 2.988,4.21887 3.6489,11.64377 1.9827,22.27472 l -24.8621,157.72297 73.799,0 24.8622,-156.37299 c 4.645,-24.47764 3.4825,-44.87736 -3.4875,-61.19922 -6.9704,-16.32143 -24.6702,-24.79631 -53.0993,-25.42466 -17.9413,0.33305 -32.8521,3.37988 -44.7322,9.1405 -11.8805,5.76109 -22.4319,12.23913 -31.6543,19.43413 l 21.8247,-137.698227 -73.4615,0 z"
         style=""
         id="path2997" />
      <path
         d="m 1454.8641,273.31212 c -8.1491,43.8675 -7.2632,77.94046 2.6578,102.21899 9.921,24.2786 29.1722,37.45498 57.754,39.52919 27.0323,1.91715 50.9289,1.62652 71.6897,-0.87187 20.7605,-2.4984 39.8758,-6.55772 57.3461,-12.17796 l 8.9999,-52.19933 c -13.4227,2.39299 -28.9897,4.38515 -46.701,5.97648 -17.7116,1.59144 -32.9692,2.26174 -45.7728,2.01091 -15.7781,0.28363 -26.381,-2.08352 -31.809,-7.10148 -5.4281,-5.01783 -6.8625,-14.72551 -4.303,-29.12305 6.9879,3.17226 21.9488,5.24029 44.8827,6.20408 22.9336,0.96396 45.211,-4.70957 66.8325,-17.0206 21.621,-12.31083 33.9569,-36.79244 37.0078,-73.44489 0.2646,-27.35102 -9.2649,-45.85702 -28.5887,-55.51805 -19.3241,-9.66057 -41.9316,-14.10425 -67.8225,-13.33107 -42.609,0.0799 -72.1961,8.47043 -88.7614,25.17155 -16.5655,16.70155 -27.7028,43.26056 -33.4121,79.6771 z m 75.8241,0.33749 c 1.6662,-13.09188 5.0271,-24.22923 10.0827,-33.41207 5.0552,-9.18251 15.3067,-14.13244 30.7543,-14.8498 9.9606,-0.33264 17.2074,1.23296 21.7403,4.6968 4.5326,3.46421 5.9857,9.811 4.3593,19.04039 -2.9161,11.99027 -9.6841,19.6096 -20.3039,22.85803 -10.6201,3.24871 -20.8714,4.4348 -30.7538,3.55829 -9.8826,-0.87625 -15.1756,-1.50679 -15.8789,-1.89164 z"
         style=""
         id="path2999" />
      <path
         d="m 1690.1439,226.06273 36.4495,0 -15.8623,100.4612 c -4.2539,30.78951 -0.8086,52.85327 10.3358,66.19134 11.1443,13.33811 26.4863,19.84896 46.026,19.53257 l 48.1494,0 6.9749,-44.43693 c -2.0814,-0.37964 -6.3845,-1.89838 -12.9093,-4.55621 -6.525,-2.65774 -10.2093,-4.17646 -11.0529,-4.55618 -5.6977,-1.92415 -9.7149,-5.78191 -12.0514,-11.57329 -2.3369,-5.79126 -2.2197,-17.15829 0.3515,-34.10112 l 13.8373,-86.96138 47.4744,0 8.4374,-53.54931 -47.4744,0 10.6874,-66.59914 -62.3242,0 -22.1622,66.59914 -38.812,14.84981 z"
         style=""
         id="path3001" />
      <path
         d="m 1855.0689,329.3364 c -4.6945,24.82238 -3.5461,45.32053 3.4453,61.49451 6.9913,16.17402 24.7051,24.55047 53.1415,25.12938 17.7536,-0.12188 32.2518,-2.74684 43.4947,-7.87491 11.2427,-5.12806 22.0566,-12.02796 32.4418,-20.69972 l 9.1124,24.52468 60.5242,0 38.137,-238.94692 -73.799,0 -26.4372,167.17284 c -7.1766,6.59529 -14.6203,11.4046 -22.331,14.42793 -7.7109,3.02346 -16.8421,4.51407 -27.3933,4.47183 -6.6938,0.23911 -11.6156,-1.64524 -14.7655,-5.65306 -3.1501,-4.00771 -3.8532,-11.57322 -2.1093,-22.69657 l 25.0871,-157.72297 -73.799,0 z"
         style=""
         id="path3003" />
      <path
         d="m 2093.0206,411.91034 73.7991,0 22.3872,-141.63568 c 6.4334,-11.79579 14.3223,-19.30975 23.6669,-22.54191 9.3442,-3.23183 19.68,-4.64274 31.0074,-4.23275 7.0356,0.007 13.7199,0.0775 20.0528,0.21094 6.3326,0.13376 11.2731,0.28845 14.8217,0.46405 l 11.1374,-70.98658 c -3.1619,-1.14116 -6.7384,-1.86772 -10.7296,-2.17968 -3.9916,-0.31148 -8.3274,-0.44741 -13.0076,-0.40779 -13.6758,0.34946 -26.2334,3.75722 -37.673,10.22331 -11.4398,6.46654 -21.0444,13.89613 -28.8137,22.28878 l -4.9499,-30.14961 -63.8992,0 z"
         style=""
         id="path3005" />
      <path
         d="m 2288.2361,401.56047 c -0.3938,3.18747 0.2812,5.69993 2.025,7.53741 1.7437,1.83748 4.2187,2.77496 7.4249,2.81246 l 44.0994,0 c 3.1968,0.075 5.9155,-0.63749 8.1562,-2.13747 2.2405,-1.49998 3.7217,-4.23745 4.4437,-8.2124 l 7.4249,-45.89941 c 0.703,-3.61864 0.3092,-6.3936 -1.1813,-8.3249 -1.4907,-1.93116 -4.2469,-2.90614 -8.2686,-2.92495 l -44.0994,0 c -3.6188,0.0469 -6.5062,1.07818 -8.6624,3.09371 -2.1563,2.01566 -3.4688,4.73438 -3.9375,8.15614 z"
         style=""
         id="path3007" />
      <path
         d="m 2396.2433,411.91034 73.799,0 26.5497,-167.17285 c 7.1763,-6.59506 14.62,-11.40438 22.3309,-14.42795 7.7107,-3.02321 16.8418,-4.51381 27.3934,-4.47181 6.6654,-0.16856 11.5028,1.85641 14.5123,6.07492 3.0092,4.21887 3.6842,11.64377 2.025,22.27472 l -24.8622,157.72297 73.7991,0 24.8622,-156.37299 c 4.645,-24.47764 3.4825,-44.87736 -3.4875,-61.19922 -6.9705,-16.32143 -24.6702,-24.79631 -53.0993,-25.42466 -17.8429,0.29087 -32.5287,3.25333 -44.0572,8.88738 -11.529,5.63453 -22.1929,12.19694 -31.9918,19.68725 l -9.4499,-24.52468 -60.5242,0 z"
         style=""
         id="path3009" />
      <path
         d="m 2659.711,287.37444 c -7.1975,42.68859 -3.7429,74.5069 10.364,95.45501 14.1068,20.94818 41.5517,31.39179 82.3349,31.33086 41.2633,0.96092 71.3473,-6.27649 90.2519,-21.71223 18.9042,-15.43571 31.4947,-44.8353 37.7714,-88.19886 7.7153,-45.96488 4.6028,-79.92066 -9.3374,-101.86745 -13.9407,-21.94637 -41.1278,-32.83996 -81.5614,-32.68082 -40.1856,-1.19974 -70.1195,6.20641 -89.802,22.21847 -19.6826,16.0125 -33.023,47.83081 -40.0214,95.45502 z m 73.7991,8.43739 c 4.1248,-28.77135 9.1498,-47.69922 15.0748,-56.78365 5.9248,-9.08408 16.6871,-13.2184 32.2871,-12.40296 15.684,-0.74511 25.1526,3.52983 28.4059,12.82485 3.2529,9.29535 2.3716,28.08259 -2.6437,56.36176 -4.1674,27.56224 -9.2767,44.94325 -15.328,52.14308 -6.0516,7.19996 -16.3921,10.29367 -31.0215,9.28113 -14.278,0.86489 -23.4654,-2.52413 -27.5621,-10.16706 -4.0969,-7.6428 -3.8344,-24.7285 0.7875,-51.25715 z"
         style=""
         id="path3011" />
    </g>
  </g>
</svg>
